<mxfile host="Electron" modified="2024-03-23T01:07:19.139Z" agent="Mozilla/5.0 (Windows NT 10.0; Win64; x64) AppleWebKit/537.36 (KHTML, like Gecko) draw.io/24.0.4 Chrome/120.0.6099.109 Electron/28.1.0 Safari/537.36" etag="Q5wkVueSV9DauPfa_IDQ" version="24.0.4" type="device">
  <diagram name="ページ1" id="LE8fIzdrHe0wcv1LTvfw">
    <mxGraphModel dx="2165" dy="1295" grid="1" gridSize="10" guides="1" tooltips="1" connect="1" arrows="1" fold="1" page="1" pageScale="1" pageWidth="1600" pageHeight="1200" math="0" shadow="0">
      <root>
        <mxCell id="0" />
        <mxCell id="cFaB45KztUIKXS-_cTrr-4" value="背景" style="locked=1;" parent="0" visible="0" />
        <mxCell id="cFaB45KztUIKXS-_cTrr-5" value="" style="rounded=0;whiteSpace=wrap;html=1;strokeWidth=3;" parent="cFaB45KztUIKXS-_cTrr-4" vertex="1">
          <mxGeometry x="1" y="1" width="1595" height="1180" as="geometry" />
        </mxCell>
        <mxCell id="cFaB45KztUIKXS-_cTrr-6" value="" style="rounded=0;whiteSpace=wrap;html=1;fillColor=#B3B3B3;fontColor=#333333;strokeColor=#666666;" parent="cFaB45KztUIKXS-_cTrr-4" vertex="1">
          <mxGeometry width="1595" height="60" as="geometry" />
        </mxCell>
        <mxCell id="cFaB45KztUIKXS-_cTrr-7" value="&lt;font style=&quot;font-size: 48px;&quot;&gt;×&lt;/font&gt;" style="rounded=0;whiteSpace=wrap;html=1;" parent="cFaB45KztUIKXS-_cTrr-4" vertex="1">
          <mxGeometry x="1550" y="10" width="40" height="40" as="geometry" />
        </mxCell>
        <mxCell id="cFaB45KztUIKXS-_cTrr-8" value="" style="rounded=0;whiteSpace=wrap;html=1;" parent="cFaB45KztUIKXS-_cTrr-4" vertex="1">
          <mxGeometry x="830" y="670" width="120" height="60" as="geometry" />
        </mxCell>
        <mxCell id="cFaB45KztUIKXS-_cTrr-9" value="ウインドウ" style="locked=1;" parent="0" />
        <mxCell id="cFaB45KztUIKXS-_cTrr-10" value="" style="rounded=0;whiteSpace=wrap;html=1;strokeWidth=3;" parent="cFaB45KztUIKXS-_cTrr-9" vertex="1">
          <mxGeometry x="1" y="1" width="1595" height="1159" as="geometry" />
        </mxCell>
        <mxCell id="cFaB45KztUIKXS-_cTrr-11" value="" style="rounded=0;whiteSpace=wrap;html=1;fillColor=#B3B3B3;fontColor=#333333;strokeColor=#666666;" parent="cFaB45KztUIKXS-_cTrr-9" vertex="1">
          <mxGeometry width="1595" height="60" as="geometry" />
        </mxCell>
        <mxCell id="cFaB45KztUIKXS-_cTrr-12" value="&lt;font style=&quot;font-size: 48px;&quot;&gt;×&lt;/font&gt;" style="rounded=0;whiteSpace=wrap;html=1;" parent="cFaB45KztUIKXS-_cTrr-9" vertex="1">
          <mxGeometry x="1550" y="10" width="40" height="40" as="geometry" />
        </mxCell>
        <mxCell id="cFaB45KztUIKXS-_cTrr-14" value="名称未設定レイヤ" style="" parent="0" />
        <mxCell id="LuSG3avCVRSMw34TRjUb-14" value="" style="rounded=0;whiteSpace=wrap;html=1;strokeWidth=2;" parent="cFaB45KztUIKXS-_cTrr-14" vertex="1">
          <mxGeometry x="20" y="78" width="1510" height="193" as="geometry" />
        </mxCell>
        <mxCell id="tZvU9d8wPMiUrcv0yISu-6" value="&lt;span style=&quot;font-size: 30px;&quot;&gt;リンクラベル&lt;br&gt;&lt;/span&gt;" style="rounded=0;whiteSpace=wrap;html=1;align=right;dashed=1;dashPattern=8 8;verticalAlign=top;" parent="cFaB45KztUIKXS-_cTrr-14" vertex="1">
          <mxGeometry x="29" y="97" width="310" height="53" as="geometry" />
        </mxCell>
        <mxCell id="tZvU9d8wPMiUrcv0yISu-7" value="&lt;span style=&quot;font-size: 30px;&quot;&gt;&lt;font color=&quot;#808080&quot;&gt;リンク用URL&lt;/font&gt;&lt;br&gt;&lt;/span&gt;" style="rounded=0;whiteSpace=wrap;html=1;align=left;" parent="cFaB45KztUIKXS-_cTrr-14" vertex="1">
          <mxGeometry x="358" y="167" width="480" height="48" as="geometry" />
        </mxCell>
        <mxCell id="LuSG3avCVRSMw34TRjUb-8" value="&lt;span style=&quot;font-size: 30px;&quot;&gt;政治資金徹底調査の会&#39;24「ちゃらんぽらん政治団体」&lt;br&gt;&lt;/span&gt;" style="rounded=0;whiteSpace=wrap;html=1;align=left;" parent="cFaB45KztUIKXS-_cTrr-14" vertex="1">
          <mxGeometry x="360" y="97" width="850" height="48" as="geometry" />
        </mxCell>
        <mxCell id="LuSG3avCVRSMw34TRjUb-9" value="&lt;span style=&quot;font-size: 30px;&quot;&gt;リンクURL&lt;br&gt;&lt;/span&gt;" style="rounded=0;whiteSpace=wrap;html=1;align=right;dashed=1;dashPattern=8 8;verticalAlign=top;" parent="cFaB45KztUIKXS-_cTrr-14" vertex="1">
          <mxGeometry x="29" y="168" width="310" height="53" as="geometry" />
        </mxCell>
        <mxCell id="LuSG3avCVRSMw34TRjUb-15" value="&lt;span style=&quot;font-size: 30px;&quot;&gt;削除&lt;/span&gt;" style="rounded=1;whiteSpace=wrap;html=1;" parent="cFaB45KztUIKXS-_cTrr-14" vertex="1">
          <mxGeometry x="1360" y="144" width="130" height="51" as="geometry" />
        </mxCell>
      </root>
    </mxGraphModel>
  </diagram>
</mxfile>
